<?xml version="1.0" encoding="utf-8"?>
<!-- Generator: Adobe Illustrator 23.0.1, SVG Export Plug-In . SVG Version: 6.00 Build 0)  -->
<!DOCTYPE svg PUBLIC "-//W3C//DTD SVG 1.1//EN" "http://www.w3.org/Graphics/SVG/1.1/DTD/svg11.dtd" [
	<!ENTITY ns_extend "http://ns.adobe.com/Extensibility/1.0/">
	<!ENTITY ns_ai "http://ns.adobe.com/AdobeIllustrator/10.0/">
	<!ENTITY ns_graphs "http://ns.adobe.com/Graphs/1.0/">
	<!ENTITY ns_vars "http://ns.adobe.com/Variables/1.0/">
	<!ENTITY ns_imrep "http://ns.adobe.com/ImageReplacement/1.0/">
	<!ENTITY ns_sfw "http://ns.adobe.com/SaveForWeb/1.0/">
	<!ENTITY ns_custom "http://ns.adobe.com/GenericCustomNamespace/1.0/">
	<!ENTITY ns_adobe_xpath "http://ns.adobe.com/XPath/1.0/">
]>
<svg version="1.1"
	 id="svg3336" xmlns:x="&ns_extend;" xmlns:i="&ns_ai;" xmlns:graph="&ns_graphs;" xmlns:cc="http://creativecommons.org/ns#" xmlns:dc="http://purl.org/dc/elements/1.1/" xmlns:inkscape="http://www.inkscape.org/namespaces/inkscape" xmlns:rdf="http://www.w3.org/1999/02/22-rdf-syntax-ns#" xmlns:sodipodi="http://sodipodi.sourceforge.net/DTD/sodipodi-0.dtd" xmlns:svg="http://www.w3.org/2000/svg"
	 xmlns="http://www.w3.org/2000/svg" xmlns:xlink="http://www.w3.org/1999/xlink" x="0px" y="0px" viewBox="0 0 937.3 937.3"
	 style="enable-background:new 0 0 937.3 937.3;" xml:space="preserve">
<style type="text/css">
	.st0{fill:#4AB24A;}
	.st1{fill:#FDFEFD;}
</style>
<metadata  id="metadata3358">
	<rdf:RDF>
		<cc:Work  rdf:about="">
			<dc:format>image/svg+xml</dc:format>
			<dc:type  rdf:resource="http://purl.org/dc/dcmitype/StillImage"></dc:type>
		</cc:Work>
	</rdf:RDF>
	<sfw  xmlns="&ns_sfw;">
		<slices></slices>
		<sliceSourceBounds  bottomLeftOrigin="true" height="937.3" width="937.3" x="31.3" y="31.4"></sliceSourceBounds>
	</sfw>
</metadata>
<g>
	<path id="path3340" class="st0" d="M0,0c312.4,0,624.9,0,937.3,0c0,312.4,0,624.8,0,937.3c-312.4,0-624.8,0-937.3,0
		C0,624.9,0,312.4,0,0z"/>
	<path class="st1" d="M274,839.3c-4-0.3-8.6,1-12.1-1.6c-4.9-3-7.3-8.7-9.2-13.9c-11.2-31.6-22.5-63.2-33.7-94.8
		c-4.1-10.9-7.4-22-11.9-32.7c-16.5,0.2-32.9,0.1-49.4,0c-1.4,0-3.5-0.2-3.7,1.6c-14.6,41-29.1,82-43.8,122.9
		c-2.4,5.8-4.2,12.8-9.8,16.5c-5.3,2.9-11.6,1.4-17.3,1.8c-0.1,7.3,0,14.6,0,21.9c24.3,0,48.6,0,72.9,0c0-7.3,0-14.6,0-21.8
		c-6.3-0.2-13.4,0.8-18.8-3.2c-0.8-2.8,0-5.8,0.8-8.5c1.9-6.3,3.9-12.5,5.9-18.7c18-0.1,36,0,54,0c2.3,8.2,5.8,16.2,6.8,24.8
		c0.4,1.6-0.2,3.7-2,4.1c-6.6,2.2-13.6,1.2-20.4,1.5c0,7.3,0,14.6,0,21.9c30.6,0,61.2,0.1,91.7,0C274,853.9,274,846.6,274,839.3z
		 M151.8,787c6.1-18,12.5-36,18.9-53.9c6.5,17.9,13.1,35.8,19.1,53.9C177.1,787.1,164.4,787,151.8,787z"/>
	<path id="path3346" class="st1" d="M291.9,696.6c26.7-0.2,53.3,0,80-0.1c21.6,35,42.6,70.5,64.1,105.6c0.3-24.8,0.1-49.6,0.1-74.4
		c0.2-3.8-1.5-8.3-5.6-9c-6-0.8-12.1-0.1-18.2-0.4c0-7.3,0-14.5,0-21.8c24.8,0,49.6,0,74.5,0c0.6,0.1,1.7,0.3,2.3,0.4
		c0.3,7.1,0,14.3,0.1,21.5c-4.9,0-9.7,0-14.6,0c-2.5,0-5.3,0.4-7,2.4c-2,2.5-1.7,5.9-1.8,9c0.1,43.8-0.1,87.5,0.1,131.3
		c-17.3,0.3-34.6,0.1-51.9,0.1c-21.9-37.3-43.9-74.6-66-111.8c-0.4,26.8-0.1,53.6-0.1,80.3c-0.3,4,2,8.3,6.1,9.2
		c5,0.7,10,0.2,15,0.3c0.1,7.3,0,14.6,0,21.9c-25.7,0-51.4,0-77.1,0c0-7.3,0-14.6,0-21.9c5.4-0.2,10.8,0.3,16.1-0.3
		c4.2-0.8,6.6-5.2,6.2-9.3c0-34,0-68.1,0-102.1c0.3-4.1-2.5-8.4-6.8-8.9c-5.2-0.7-10.5-0.2-15.8-0.3
		C291.9,711.1,291.9,703.9,291.9,696.6z"/>
	<path id="path3342" class="st1" d="M535,701.9c12.9-7.4,28-9.6,42.7-10.1c16.5-1.2,33.2,3.2,47.6,11.2c1.7,1,3.4,1.9,5.3,2.7
		c1.4-3.8,2.9-7.5,4.2-11.3c6.9-0.2,13.7,0,20.6-0.1c0.3,20.4,0.1,40.8,0.1,61.1c-7.7-0.1-15.4,0.2-23-0.2
		c-1.7-13.5-10.3-25.6-21.7-32.7c-11.5-7.3-25.9-9.4-39.1-6.4c-7.2,1.7-14,7.2-15.4,14.7c-0.7,4.6-1,10.1,2.8,13.5
		c6,5.5,14.2,7.3,21.9,9.3c17.8,4,36.1,6.5,52.9,14c8.9,4.1,17.3,9.9,22.6,18.3c7.7,11.3,8.6,25.8,6.3,39
		c-2.3,12.9-10.9,24.2-22.2,30.7c-13.5,7.9-29.4,10.3-44.8,10.5c-19.2,0-39.4-3.6-55.2-15.3c-2.2,4.4-4.3,8.8-6.6,13.2
		c-6.9,0-13.9,0-20.8,0c-0.2-21.7,0-43.4-0.1-65.1c7.7,0,15.4,0,23.1,0c1.8,13,8.5,25.3,19.1,33.2c10.7,7.9,24.2,11.4,37.4,10.9
		c8.2-0.7,16.9-3.4,22.5-9.9c5.2-5.8,5.9-15.6,0.5-21.5c-4-3.8-9.3-5.5-14.4-7.4c-14.4-4.5-29.4-6.4-44-10
		c-13.1-3.6-26.4-9.1-35.5-19.6c-10-10.5-11.6-26.2-9.8-40C513.5,720.8,522.9,708.6,535,701.9z"/>
	<path class="st1" d="M858.3,839.3c-3-0.1-6.1,0.2-9.1-0.2c-6-2-9.2-7.9-11.4-13.4c-15.3-43.1-30.6-86.2-46-129.2
		c-17.5-0.1-35,0.1-52.5-0.1c-1.6,3.2-2.6,6.7-3.9,10.1c-13.8,38.6-27.4,77.2-41.2,115.8c-2.5,6.1-4.8,13.9-11.7,16.3
		c-4.9,1.2-10,0.5-15,0.7c0,7.2,0,14.5,0,21.8c24.3,0.2,48.6,0,72.9,0.1c0-7.3,0-14.6,0-21.9c-6.5,0-13.7,0.7-19.2-3.5
		c0.4-9.4,4.7-18,7.2-26.9c18,0,36.1-0.1,54.1,0.1c2.2,9.3,7,18.1,6.7,27.9c-6.9,3.6-14.9,2.1-22.3,2.5c0,7.3,0,14.6,0,21.9
		c30.5,0,61,0,91.5,0C858.3,853.9,858.4,846.6,858.3,839.3z M736.1,787c6.2-17.9,12.6-35.7,18.8-53.5c1.2,1.9,1.9,4,2.6,6.1
		c5.6,15.8,11.3,31.6,16.9,47.4C761.6,787.1,748.8,787.1,736.1,787z"/>
</g>
</svg>
